<?xml version="1.0" encoding="UTF-8"?>
<svg width="800px" height="800px" viewBox="0 0 800 800" version="1.1" xmlns="http://www.w3.org/2000/svg">
  <!-- Background with grid -->
  <defs>
    <linearGradient id="bgGradient" x1="0%" y1="0%" x2="100%" y2="100%">
      <stop offset="0%" stop-color="#050520" />
      <stop offset="100%" stop-color="#101035" />
    </linearGradient>
    <pattern id="grid" width="40" height="40" patternUnits="userSpaceOnUse">
      <path d="M 40 0 L 0 0 0 40" fill="none" stroke="#20a3da44" stroke-width="0.5"/>
    </pattern>
    <radialGradient id="glowCenter" cx="50%" cy="40%" r="50%" fx="50%" fy="40%">
      <stop offset="0%" stop-color="#22d3ee33" />
      <stop offset="100%" stop-color="#22d3ee00" />
    </radialGradient>
  </defs>
  
  <!-- Base background with gradient and grid -->
  <rect width="800" height="800" fill="url(#bgGradient)" />
  <rect width="800" height="800" fill="url(#grid)" />
  <rect width="800" height="800" fill="url(#glowCenter)" />
  
  <!-- Anonymous figure silhouette -->
  <g transform="translate(200, 120)">
    <!-- Head -->
    <ellipse cx="200" cy="180" rx="150" ry="160" fill="#000000" />
    
    <!-- Shoulders and body -->
    <path d="M 50 280 Q 200 350 350 280 L 350 500 Q 200 550 50 500 Z" fill="#000000" />
    
    <!-- Facial features suggestion (minimal) -->
    <ellipse cx="150" cy="170" rx="15" ry="10" fill="#101035" opacity="0.7" />
    <ellipse cx="250" cy="170" rx="15" ry="10" fill="#101035" opacity="0.7" />
    <path d="M 150 230 Q 200 260 250 230" fill="none" stroke="#101035" stroke-width="5" opacity="0.7" />
    
    <!-- Hood outline -->
    <path d="M 50 180 Q 200 -30 350 180" fill="none" stroke="#22d3ee" stroke-width="1.5" opacity="0.5" stroke-dasharray="5,5" />
  </g>
  
  <!-- Network nodes and connections -->
  <g>
    <!-- Nodes -->
    <circle cx="150" cy="200" r="4" fill="#22d3ee" opacity="0.8">
      <animate attributeName="opacity" values="0.4;0.9;0.4" dur="3s" repeatCount="indefinite" />
    </circle>
    <circle cx="300" cy="120" r="3" fill="#22d3ee" opacity="0.8">
      <animate attributeName="opacity" values="0.4;0.8;0.4" dur="4s" repeatCount="indefinite" />
    </circle>
    <circle cx="450" cy="180" r="4" fill="#22d3ee" opacity="0.8">
      <animate attributeName="opacity" values="0.5;0.9;0.5" dur="3.5s" repeatCount="indefinite" />
    </circle>
    <circle cx="600" cy="250" r="3" fill="#22d3ee" opacity="0.7">
      <animate attributeName="opacity" values="0.4;0.7;0.4" dur="4.5s" repeatCount="indefinite" />
    </circle>
    <circle cx="500" cy="350" r="2.5" fill="#22d3ee" opacity="0.6">
      <animate attributeName="opacity" values="0.3;0.6;0.3" dur="3.7s" repeatCount="indefinite" />
    </circle>
    <circle cx="150" cy="400" r="3" fill="#22d3ee" opacity="0.7">
      <animate attributeName="opacity" values="0.4;0.7;0.4" dur="3.3s" repeatCount="indefinite" />
    </circle>
    <circle cx="240" cy="500" r="2.5" fill="#22d3ee" opacity="0.6">
      <animate attributeName="opacity" values="0.3;0.6;0.3" dur="4.2s" repeatCount="indefinite" />
    </circle>
    <circle cx="400" cy="580" r="4" fill="#22d3ee" opacity="0.8">
      <animate attributeName="opacity" values="0.5;0.8;0.5" dur="3.1s" repeatCount="indefinite" />
    </circle>
    <circle cx="560" cy="480" r="3" fill="#22d3ee" opacity="0.7">
      <animate attributeName="opacity" values="0.4;0.7;0.4" dur="3.8s" repeatCount="indefinite" />
    </circle>
    
    <!-- Connections -->
    <line x1="150" y1="200" x2="300" y2="120" stroke="#22d3ee" stroke-width="0.5" opacity="0.5" />
    <line x1="300" y1="120" x2="450" y2="180" stroke="#22d3ee" stroke-width="0.5" opacity="0.5" />
    <line x1="450" y1="180" x2="600" y2="250" stroke="#22d3ee" stroke-width="0.5" opacity="0.5" />
    <line x1="450" y1="180" x2="500" y2="350" stroke="#22d3ee" stroke-width="0.5" opacity="0.5" />
    <line x1="400" y1="380" x2="500" y2="350" stroke="#22d3ee" stroke-width="0.5" opacity="0.5" />
    <line x1="150" y1="400" x2="240" y2="500" stroke="#22d3ee" stroke-width="0.5" opacity="0.5" />
    <line x1="240" y1="500" x2="400" y2="580" stroke="#22d3ee" stroke-width="0.5" opacity="0.5" />
    <line x1="400" y1="580" x2="560" y2="480" stroke="#22d3ee" stroke-width="0.5" opacity="0.5" />
    <line x1="560" y1="480" x2="500" y2="350" stroke="#22d3ee" stroke-width="0.5" opacity="0.5" />
    <line x1="150" y1="400" x2="300" y2="330" stroke="#22d3ee" stroke-width="0.5" opacity="0.5" />
  </g>
  
  <!-- Additional glowing effects -->
  <circle cx="400" cy="300" r="250" fill="url(#glowCenter)" opacity="0.4" />
</svg>